<svg xmlns="http://www.w3.org/2000/svg" xmlns:svg="http://www.w3.org/2000/svg" id="svg2" width="125mm" height="125mm" version="1.1" viewBox="0 0 442.913 442.913" style="enable-background:new"><defs id="defs4"><filter style="color-interpolation-filters:sRGB" id="filter4271" width="1.3" height="1.3" x="-.15" y="-.15"><feTurbulence id="feTurbulence4273" baseFrequency=".1" numOctaves="5" result="result1" seed="50" type="fractalNoise"/><feGaussianBlur id="feGaussianBlur4275" result="result7" stdDeviation="4"/><feDisplacementMap id="feDisplacementMap4277" in="SourceGraphic" in2="result7" result="result5" scale="20" xChannelSelector="G" yChannelSelector="A"/><feComposite id="feComposite4279" in="result5" in2="result1" operator="in" result="result2"/><feGaussianBlur id="feGaussianBlur4281" result="result6" stdDeviation="1"/><feSpecularLighting id="feSpecularLighting4283" in="result6" result="result4" specularConstant="3.5" specularExponent="35" surfaceScale="-3"><feDistantLight id="feDistantLight4285" azimuth="225" elevation="45"/></feSpecularLighting><feComposite id="feComposite4287" in="result4" in2="result2" k1="1.7" k2="0" k3=".7" k4="0" operator="arithmetic" result="result91"/><feBlend id="feBlend4289" in2="result91" mode="multiply" result="fbSourceGraphic"/><feComposite id="feComposite4291" in="fbSourceGraphic" in2="fbSourceGraphic" k1="0" k2="0" k3="0" k4="0" operator="arithmetic" result="result2"/><feComposite id="feComposite4293" in="result2" in2="fbSourceGraphic" k1="0" k2="2" k3="2" k4="0" operator="arithmetic" result="result4"/><feBlend id="feBlend4295" in="result4" in2="result4" mode="screen" result="fbSourceGraphic"/><feColorMatrix id="feColorMatrix4329" in="fbSourceGraphic" result="fbSourceGraphicAlpha" values="0 0 0 -1 0 0 0 0 -1 0 0 0 0 -1 0 0 0 0 1 0"/><feTurbulence id="feTurbulence4331" baseFrequency="0.01 0.11" numOctaves="2" seed="10" type="turbulence"/><feColorMatrix id="feColorMatrix4333" result="result5" values="1 0 0 0 0 0 1 0 0 0 0 0 1 0 0 0 0 0 1.3 0"/><feComposite id="feComposite4335" in="fbSourceGraphic" in2="result5" operator="out"/><feMorphology id="feMorphology4337" operator="dilate" radius="1.3" result="result3"/><feTurbulence id="feTurbulence4339" baseFrequency="0.08 0.05" numOctaves="3" result="result6" seed="7" type="fractalNoise"/><feGaussianBlur id="feGaussianBlur4341" result="result7" stdDeviation=".5"/><feDisplacementMap id="feDisplacementMap4343" in="result3" in2="result7" result="result4" scale="3" xChannelSelector="R" yChannelSelector="G"/><feComposite id="feComposite4345" in="result4" in2="result4" k1="1" k2="1" k3="0" k4="0" operator="arithmetic" result="result2"/><feBlend id="feBlend4347" in="result2" in2="result4" mode="normal"/></filter><filter style="color-interpolation-filters:sRGB" id="filter4412"><feComponentTransfer id="feComponentTransfer4414" result="component"><feFuncR id="feFuncR4416" amplitude="5.05" exponent=".99" offset="0" type="gamma"/><feFuncG id="feFuncG4418" amplitude="5.05" exponent=".99" offset="0" type="gamma"/><feFuncB id="feFuncB4420" amplitude="5.05" exponent=".99" offset="0" type="gamma"/></feComponentTransfer></filter></defs><metadata id="metadata7"/><g id="layer1" transform="translate(0,-1328.7401)"><g id="g4196" transform="matrix(0.24149806,0,0,0.24145288,225.22256,1388.9618)" style="fill:#fff;fill-opacity:1"><path style="fill:#fff;fill-opacity:1" id="path4198" d="m -23.127269,1390.6989 -17.90538,-560.21927 c -0.34299,-3.3172 -1.64364,218.58447 -0.34299,-3.3172 -0.3531,-0.47892 -10.93529,-0.51456 -173.249751,-0.58383 l -172.87364,-0.0738 65.92522,-199.55675 c 35.08686,-106.20849 162.68565,-135.40503 162.78441,-135.7734 0.30018,-1.11993 -0.0856,-445.19945 -0.0856,-445.19945 l 0.40459,0.260146 c 0,0 -131.2715,-4.821511 -152.01138,-88.369832 l 1.51089,-3.0108 301.9084808,0.0752 288.7834292,0.0752 c 0,0 1.00087,1.96803 0.63711,3 -31.90327,90.50934 -139.24005,88.813064 -139.24005,88.813064 l -0.34346,-0.0392 c 0,0 -0.216,443.547172 0.011,444.393892 0.099,0.36732 113.05671,9.10094 156.92586,132.84371 l 71.78594,202.48833 -172.8745,0.0738 c -162.31519,0.0693 -172.89745,0.10491 -173.25055,0.58383 -0.658604,233.31056 0,0 -0.34299,3.31729 -0.11433,1.10576 -11.814858,314.16797 -17.7222782,560.31447 -1.768236,73.6777 -15.226261,71.335 -15.308761,71.335 -0.0825,0 -12.8149898,0.8633 -15.1255998,-71.4304 z"/></g><path style="fill:#fff;fill-opacity:1;fill-rule:evenodd;stroke-width:1.6019038" id="rect1031" d="M 20.182352,1496.2296 H 163.86466 v 12.8102 c -5.35093,2.1076 -13.82781,9.5966 -15.04729,10.5238 H 20.182352 Z"/><path style="fill:#fff;fill-opacity:1;fill-rule:evenodd;stroke-width:1.6019038" id="rect1031-2" d="M 427.54726,1496.2296 H 283.86497 v 11.283 c 5.3509,2.1075 12.4277,11.1238 13.6472,12.051 h 130.03509 z"/></g></svg>